#!OML:ASF H:\Terrain\Patient Classification 1\Walking\liu\liu.ASF
:FULLY-SPECIFIED
:DEGREES
142
root 8.82569 16.2379 -7.47273 6.0384 2.00002 5.89437
lowerback -6.93699 -2.56479 -6.61876
upperback -0.944365 -2.97445 1.74781
thorax 3.3415 -1.57717 5.24761
lowerneck -24.1549 -1.89837 -11.4233
upperneck 20.8604 -1.02724 9.81534
head 10.8183 -0.150599 5.34593
rclavicle -6.35862e-014 1.90833e-014
rhumerus -45.4948 -9.58391 -70.8211
rradius 13.2527
rwrist 20.0361
rhand -22.3818 -23.6624
rfingers 7.12502
rthumb 4.04009 -53.6039
lclavicle -6.35862e-014 1.90833e-014
lhumerus -10.4074 -18.2303 86.7723
lradius 37.3732
lwrist 4.06627
lhand -16.9897 -29.2098
lfingers 7.12502
lthumb 9.24529 0.56747
rfemur -41.451 4.10898 14.0709
rtibia 29.5521
rfoot -16.4855 -3.51305
rtoes -19.764
lfemur 19.6775 5.95614 -27.5596
ltibia -4.77083e-014
lfoot -12.2944 -3.86553
ltoes -5.98245
143
root 8.80667 16.2103 -7.24043 5.91942 2.31776 5.72886
lowerback -6.77453 -2.85227 -6.5842
upperback -1.10362 -3.37957 1.90201
thorax 3.14916 -1.76896 5.35508
lowerneck -24.12 -1.44532 -10.7659
upperneck 21.1324 -0.458244 9.08176
head 10.837 0.066032 5.05508
rclavicle 6.75868e-015 1.66979e-014
rhumerus -46.2638 -12.6119 -67.5528
rradius 12.5689
rwrist 24.3946
rhand -24.0259 -17.3684
rfingers 7.12502
rthumb 2.45235 -47.3341
lclavicle 6.75868e-015 1.66979e-014
lhumerus -11.2276 -17.6667 86.8347
lradius 38.1848
lwrist 4.15345
lhand -17.6703 -29.5363
lfingers 7.12502
lthumb 8.58849 0.269007
rfemur -41.1205 3.51546 14.7623
rtibia 30.8224
rfoot -14.5854 -2.77651
rtoes -19.0887
lfemur 20.7007 5.97318 -27.0556
ltibia 1.90833e-014
lfoot -11.7871 -3.81237
ltoes -10.8548
144
root 8.78939 16.2162 -7.0016 5.81254 2.54851 5.59999
lowerback -6.59096 -3.11502 -6.57642
upperback -1.28166 -3.75096 2.06016
thorax 2.92421 -1.94278 5.489
lowerneck -24.4097 -1.3354 -10.6044
upperneck 21.4569 -0.271149 8.80098
head 10.9883 0.127699 4.96921
rclavicle -6.42323e-015 2.06736e-014
rhumerus -47.3321 -16.1496 -63.63
rradius 11.9619
rwrist 29.2363
rhand -24.6006 -20.1414
rfingers 7.12502
rthumb 1.8973 -50.1127
lclavicle -6.42323e-015 2.06736e-014
lhumerus -11.9888 -16.8194 86.9229
lradius 38.7671
lwrist 4.11808
lhand -17.9677 -30.3192
lfingers 7.12502
lthumb 8.30149 -0.502296
rfemur -40.9821 3.05187 15.2694
rtibia 31.9546
rfoot -11.8795 -2.22764
rtoes -21.7337
lfemur 21.6194 6.03776 -26.4537
ltibia 3.49861e-014
lfoot -10.615 -4.48859
ltoes -9.95592
145
root 8.76784 16.2253 -6.75909 5.6176 2.48323 5.46944
lowerback -6.5161 -3.17487 -6.46524
upperback -1.3965 -3.84707 2.12217
thorax 2.77371 -1.98185 5.48776
lowerneck -24.2127 -1.18817 -10.6058
upperneck 21.4557 -0.063155 8.71862
head 10.9271 0.208908 4.96661
rclavicle -5.16095e-014 2.14687e-014
rhumerus -48.0821 -17.1454 -62.0535
rradius 11.6397
rwrist 30.1229
rhand -25.1228 -21.5521
rfingers 7.12502
rthumb 1.39296 -51.5273
lclavicle -5.16095e-014 2.14687e-014
lhumerus -12.7659 -16.4295 87.0412
lradius 39.3473
lwrist 4.24915
lhand -18.0391 -30.8657
lfingers 7.12502
lthumb 8.23255 -1.04612
rfemur -40.9646 3.15717 15.5629
rtibia 32.8589
rfoot -9.32887 -1.60375
rtoes -26.374
lfemur 22.6069 6.39545 -25.8739
ltibia -3.49861e-014
lfoot -8.97142 -4.58652
ltoes -10.8788
146
root 8.74053 16.2171 -6.52112 5.47476 2.28092 4.9097
lowerback -6.66533 -3.09845 -5.89556
upperback -1.44791 -3.77871 2.21942
thorax 2.7641 -1.94147 5.26922
lowerneck -20.8237 -1.26786 -14.4658
upperneck 18.2263 -0.250618 13.4255
head 9.17481 0.37108 7.13831
rclavicle 2.11519e-015 -6.36111e-015
rhumerus -48.371 -15.2598 -63.5663
rradius 12.2016
rwrist 26.8245
rhand -25.3048 -22.3391
rfingers 7.12502
rthumb 1.21722 -52.3153
lclavicle 2.11519e-015 -6.36111e-015
lhumerus -13.6682 -16.4665 87.1595
lradius 40.153
lwrist 4.32729
lhand -18.257 -30.8771
lfingers 7.12502
lthumb 8.02227 -1.04933
rfemur -40.8971 3.79002 16.1568
rtibia 33.6313
rfoot -7.59083 -1.20973
rtoes -25.9591
lfemur 23.5573 6.9069 -24.8657
ltibia -1.59028e-014
lfoot -7.21 -4.38425
ltoes -13.1692
147
root 8.7267 16.216 -6.29064 5.4475 2.71282 4.30352
lowerback -6.81136 -3.27073 -5.16568
upperback -1.46045 -4.05509 2.33435
thorax 2.82909 -2.07494 4.94019
lowerneck -21.9896 -1.0832 -12.2396
upperneck 19.5629 -0.043323 10.8249
head 9.82565 0.341552 5.90649
rclavicle -3.50222e-014 1.03368e-014
rhumerus -48.4738 -12.4596 -66.1147
rradius 13.3404
rwrist 22.4573
rhand -25.6089 -22.2297
rfingers 7.12502
rthumb 0.923513 -52.2074
lclavicle -3.50222e-014 1.03368e-014
lhumerus -14.424 -16.2296 87.2055
lradius 40.7845
lwrist 3.93912
lhand -18.839 -31.0625
lfingers 7.12502
lthumb 7.46059 -1.21406
rfemur -40.5683 3.73777 16.7842
rtibia 34.4098
rfoot -6.39238 -1.02348
rtoes -22.4392
lfemur 24.2862 6.80551 -23.8674
ltibia -4.13472e-014
lfoot -5.29316 -4.49544
ltoes -14.0521
